<?xml version="1.0" encoding="UTF-8" standalone="no"?>
<!-- Generator: Adobe Illustrator 16.0.3, SVG Export Plug-In . SVG Version: 6.00 Build 0)  -->

<svg
   xmlns:dc="http://purl.org/dc/elements/1.1/"
   xmlns:cc="http://creativecommons.org/ns#"
   xmlns:rdf="http://www.w3.org/1999/02/22-rdf-syntax-ns#"
   xmlns:svg="http://www.w3.org/2000/svg"
   xmlns="http://www.w3.org/2000/svg"
   xmlns:sodipodi="http://sodipodi.sourceforge.net/DTD/sodipodi-0.dtd"
   xmlns:inkscape="http://www.inkscape.org/namespaces/inkscape"
   version="1.1"
   id="Layer_1"
   x="0px"
   y="0px"
   width="173.441px"
   height="431.75px"
   viewBox="12.663 5.418 173.441 431.75"
   enable-background="new 12.663 5.418 173.441 431.75"
   xml:space="preserve"
   inkscape:version="0.91pre4 r13712"
   sodipodi:docname="seagull.svg"><metadata
     id="metadata11"><rdf:RDF><cc:Work
         rdf:about=""><dc:format>image/svg+xml</dc:format><dc:type
           rdf:resource="http://purl.org/dc/dcmitype/StillImage" /></cc:Work></rdf:RDF></metadata><defs
     id="defs9" /><sodipodi:namedview
     pagecolor="#ffffff"
     bordercolor="#666666"
     borderopacity="1"
     objecttolerance="10"
     gridtolerance="10"
     guidetolerance="10"
     inkscape:pageopacity="0"
     inkscape:pageshadow="2"
     inkscape:window-width="1022"
     inkscape:window-height="605"
     id="namedview7"
     showgrid="false"
     inkscape:zoom="0.77302698"
     inkscape:cx="26.726739"
     inkscape:cy="204.39864"
     inkscape:window-x="37"
     inkscape:window-y="22"
     inkscape:window-maximized="0"
     inkscape:current-layer="g3" /><g
     id="g3"><path
       d="M17.327,190.978c-0.946-0.939-3.607-2.448-3.513-3.759c0.133-1.863,1.971-4.011,3.654-5.271   c3.439-2.577,7.607-4.243,10.829-7.031c3.263-2.824,6.116-6.307,8.488-9.934c3.981-6.088,10.004-7.47,16.417-7.746   c7.316-0.314,14.662-0.188,21.985,0.048c4.05,0.131,6.896-1.402,9.483-4.398c17.502-20.27,20.926-45.833,9.196-69.756   c-0.438-0.893-0.786-1.963-1.5-2.565c-6.439-5.429-4.545-11.482-1.257-17.5c1.505-2.754,3.137-5.654,5.398-7.745   c9.402-8.693,18.468-17.933,28.802-25.385c10.326-7.445,21.951-13.116,33.15-19.305c3.226-1.783,6.947-2.669,10.879-4.129   c-1.483,8.525-22.801,35.247-36.567,49.5c7.422,17.684,11.444,36.438,13.702,55.295c1.311,10.948-1.567,22.384-2.421,33.611   c-0.376,4.95-0.919,9.972-0.478,14.879c0.754,8.395,3.479,15.048,12.945,18.331c7.404,2.567,14.527,4.405,22.234,3.875   c3.207-0.221,4.974,1.106,6.117,3.901c3.069,7.5,0.172,20.239-6.09,25.353c-5.113,4.176-8.796,4.476-13.865,0.842   c-7.549-5.412-16.227-4.201-24.424-1.545c-2.269,0.735-3.947,3.882-5.479,6.197c-5.392,8.142-6.697,17.573-8.177,26.944   c-4.744,30.048-17.651,56.683-34.833,81.347c-4.926,7.07-7.033,14.002-6.694,22.682c0.467,11.965,1.74,23.857,2.21,35.797   c0.253,6.443-0.564,12.947-1.183,19.396c-0.327,3.41-0.105,8.125-2.156,9.863c-4.744,4.021-1.613,8.205-1.901,12.283   c-6.781,0.695-2.626,8.012-7.317,11.17c-5.354-11.926-10.942-23.563-15.847-35.479c-8.307-20.186-14.521-40.955-17.031-62.783   c-0.986-8.576,0.625-16.037,5.247-23.219c10.462-16.258,19.736-33.121,25.676-51.658c6.258-19.527,8.467-39.269,3.504-59.408   c-0.366-1.485-1.921-3.024-3.328-3.852c-9.884-5.82-19.866-11.476-29.847-17.129c-0.821-0.465-1.959-0.894-2.807-0.704   c-6.275,1.409-12.558,2.825-18.73,4.614C20.387,187.019,19.396,188.888,17.327,190.978z"
       id="path5"
       style="fill:#ececec" /></g></svg>